<svg width="72" height="16" viewBox="0 0 72 16" fill="none" xmlns="http://www.w3.org/2000/svg">
<g clip-path="url(#clip0_1_323)">
<path d="M17.6698 3.33066L13.3669 0.388687C13.0002 0.138392 12.5614 0.00390625 12.1114 0.00390625C11.6614 0.00390625 11.2226 0.138392 10.8559 0.388687L9.45509 1.34547L7.93204 2.38375L6.55307 3.33066C6.27225 3.52313 6.04327 3.77707 5.88511 4.07142C5.72695 4.36577 5.64416 4.69207 5.64361 5.02325V10.985C5.64381 11.0618 5.62531 11.1377 5.58958 11.2065C5.55385 11.2753 5.50188 11.3351 5.4378 11.3813L3.94434 12.3689L5.37477 13.3442L6.38327 12.6763C6.66415 12.4842 6.89319 12.2305 7.05137 11.9363C7.20954 11.6422 7.29229 11.316 7.29272 10.985V5.02325C7.29291 4.94418 7.31259 4.86627 7.35015 4.79589C7.38771 4.72552 7.44209 4.66466 7.50883 4.61831L11.8117 1.67757C11.8991 1.61747 12.0039 1.58514 12.1114 1.58514C12.2189 1.58514 12.3238 1.61747 12.4111 1.67757L13.5341 2.44424L14.9633 3.41955L16.7153 4.61708C16.7827 4.66287 16.8377 4.72357 16.8755 4.79405C16.9134 4.86454 16.933 4.94273 16.9327 5.02202V10.985C16.9328 11.064 16.9131 11.142 16.8753 11.2122C16.8374 11.2825 16.7826 11.343 16.7153 11.3887L12.4111 14.3183C12.3166 14.3808 12.2035 14.4123 12.0887 14.4081C11.974 14.4038 11.8637 14.3641 11.7744 14.2948L10.955 13.801L9.51298 14.7998L10.8559 15.6121C11.2226 15.8626 11.6614 15.9972 12.1114 15.9972C12.5614 15.9972 13.0003 15.8626 13.3669 15.6121L17.6698 12.6714C17.9499 12.4797 18.1786 12.2268 18.3367 11.9336C18.4948 11.6403 18.578 11.3152 18.5792 10.985V5.02325C18.5791 4.69199 18.4965 4.36556 18.3383 4.07114C18.1801 3.77672 17.9509 3.52284 17.6698 3.33066Z" fill="#131416"/>
<path d="M10.6446 13.6147L12.0262 12.6703C12.3062 12.4785 12.5347 12.2255 12.6928 11.9323C12.8509 11.6391 12.9341 11.314 12.9356 10.9839V5.0221C12.9354 4.94491 12.954 4.86875 12.9899 4.79971C13.0259 4.73067 13.0782 4.67069 13.1427 4.62457L14.6323 3.63691L13.2032 2.66161L12.196 3.32827C11.9152 3.52074 11.6864 3.7747 11.5284 4.06908C11.3705 4.36345 11.288 4.68975 11.2878 5.02086V10.9839C11.2879 11.0629 11.2682 11.1409 11.2303 11.2111C11.1925 11.2814 11.1377 11.3419 11.0704 11.3876L6.76753 14.3172C6.68013 14.3773 6.57532 14.4096 6.46781 14.4096C6.36029 14.4096 6.25548 14.3773 6.16809 14.3172L5.04509 13.5505L3.61852 12.5789L1.8665 11.3814C1.80012 11.3363 1.7458 11.2768 1.70801 11.2077C1.67023 11.1386 1.65004 11.0619 1.64911 10.9839V5.0221C1.64867 4.94292 1.66807 4.8648 1.70568 4.79432C1.74329 4.72385 1.79801 4.66308 1.86522 4.61716L6.16809 1.67642C6.26351 1.61303 6.37778 1.58105 6.49375 1.58528C6.60972 1.58951 6.72113 1.62972 6.81126 1.69988L7.60623 2.18259L9.06625 1.19494L7.72844 0.385062C7.36181 0.134593 6.92298 0 6.47295 0C6.02293 0 5.58409 0.134593 5.21747 0.385062L0.909455 3.32951C0.628326 3.52169 0.399117 3.77557 0.240922 4.06999C0.0827272 4.3644 0.000126015 4.69084 0 5.0221V10.9839C0.000231532 11.3151 0.0828782 11.6415 0.241064 11.9359C0.399251 12.2303 0.628403 12.4842 0.909455 12.6764L5.21232 15.6172C5.57894 15.8677 6.01778 16.0023 6.46781 16.0023C6.91783 16.0023 7.35667 15.8677 7.72329 15.6172L9.1936 14.6123L10.6433 13.6246L10.6446 13.6147Z" fill="#131416"/>
<path d="M28.5109 1.87744H25.3027V3.7009C25.3028 3.90666 25.2192 4.10433 25.0698 4.25189C24.9204 4.39944 24.7169 4.48523 24.5026 4.49102L23.6484 4.51201V6.94534H25.3027V11.3133C25.3027 14.0738 26.4411 14.9676 31.2007 14.6701V12.1639C28.7797 12.4022 28.5932 11.7664 28.5932 10.9923V6.94164H31.2007V4.45892H28.5109V1.87744Z" fill="#131416"/>
<path d="M41.4192 0.217773C40.2614 0.217773 39.626 0.464687 39.626 1.77704C39.626 3.08938 40.2589 3.3363 41.4192 3.3363C42.5602 3.3363 43.1557 3.05728 43.1557 1.77704C43.1557 0.459749 42.5602 0.217773 41.4192 0.217773Z" fill="#131416"/>
<path d="M43.0364 4.45898H39.7871V14.5874H43.0364V4.45898Z" fill="#131416"/>
<path d="M51.3951 4.27972C49.7601 4.27972 48.7259 4.81552 48.2294 5.43157V0.546387H45.0225V14.5872C45.0585 14.5872 45.0932 14.5872 45.1292 14.5797H45.2733C45.6324 14.5795 45.9839 14.4807 46.2863 14.295C46.5888 14.1093 46.8296 13.8444 46.9803 13.5316V13.5242C47.0064 13.4711 47.0462 13.4253 47.0959 13.3911C47.1456 13.3569 47.2035 13.3354 47.2642 13.3286C47.325 13.3218 47.3865 13.3299 47.4431 13.3523C47.4996 13.3746 47.5493 13.4104 47.5875 13.4563C48.2023 14.1711 49.0591 14.5983 50.2759 14.7143C50.5287 14.7479 50.7836 14.7652 51.0388 14.7662C52.8795 14.7662 54.0501 14.0193 54.7512 12.939C54.7898 12.881 54.8284 12.8156 54.8644 12.7612L54.9364 12.6304C54.9892 12.5341 55.038 12.4365 55.0844 12.3353L55.1165 12.2612C55.1705 12.1378 55.2181 12.0143 55.2632 11.8909C55.2632 11.8773 55.2722 11.8637 55.276 11.8501C55.321 11.718 55.3622 11.5835 55.3969 11.4464C55.3969 11.4291 55.4059 11.4143 55.4098 11.3983C55.4381 11.2835 55.4638 11.1674 55.4857 11.0489C55.4947 11.002 55.505 10.9551 55.514 10.9081C55.523 10.8612 55.5243 10.8341 55.5307 10.797C55.5998 10.3689 55.6355 9.9364 55.6375 9.50318C55.6375 6.90071 54.665 4.27972 51.3951 4.27972ZM50.2991 12.2032C48.4982 12.2032 48.2088 11.1118 48.2088 9.50318C48.2088 7.95379 48.4365 6.8217 50.2785 6.8217C52.037 6.8217 52.3264 7.93281 52.3264 9.50318C52.3264 11.0909 52.037 12.2032 50.2991 12.2032Z" fill="#131416"/>
<path d="M61.7616 4.27979C57.9128 4.27979 57.0021 5.76867 57.0021 7.93411H60.1472C60.1472 7.11929 60.519 6.52424 61.844 6.52424C63.2512 6.52424 63.7066 7.14151 63.7066 8.31065L60.9332 8.58844C57.9746 8.8872 56.5879 9.69955 56.5879 11.6477C56.5879 13.7724 58.4917 14.7662 60.9744 14.7662C62.581 14.7662 63.6449 14.3181 64.3729 13.4712C64.411 13.425 64.4608 13.389 64.5175 13.3664C64.5742 13.3439 64.6359 13.3356 64.6969 13.3425C64.7578 13.3493 64.8159 13.3709 64.8657 13.4053C64.9155 13.4397 64.9553 13.4858 64.9814 13.5391C65.1321 13.8519 65.3729 14.1168 65.6753 14.3025C65.9778 14.4882 66.3293 14.587 66.6884 14.5872H66.9341V8.8477C66.9315 6.22547 66.2639 4.27979 61.7616 4.27979ZM61.633 12.581C60.4534 12.581 59.9607 12.144 59.9607 11.528C59.9607 11.0514 60.3543 10.6946 61.633 10.5749L63.7027 10.3366C63.6834 11.5885 63.0827 12.581 61.633 12.581Z" fill="#131416"/>
<path d="M71.9999 0.546387H68.7725V14.5872H71.9999V0.546387Z" fill="#131416"/>
<path d="M38.6835 4.26367C38.5793 4.26367 38.4828 4.27108 38.3825 4.27478C37.5606 4.22743 36.7458 4.44467 36.0671 4.89207C35.7738 5.07345 35.5113 5.29705 35.2888 5.55503C35.2504 5.60084 35.2005 5.63653 35.1438 5.65876C35.0871 5.68099 35.0255 5.68903 34.9646 5.68211C34.9038 5.6752 34.8458 5.65357 34.7961 5.61925C34.7464 5.58493 34.7065 5.53904 34.6804 5.48589C34.5285 5.17265 34.2863 4.90775 33.9824 4.72263C33.6785 4.53751 33.3256 4.43992 32.9656 4.44145H32.7199V4.46491H32.7109V14.5884H35.9384V9.40318C35.9384 8.05256 36.3115 6.76244 38.7324 7.00071V4.29948H38.6887C38.6874 4.27725 38.6861 4.26367 38.6835 4.26367Z" fill="#131416"/>
</g>
<defs>
<clipPath id="clip0_1_323">
<rect width="72" height="16" fill="white"/>
</clipPath>
</defs>
</svg>
